<mxfile host="app.diagrams.net" modified="2022-09-21T15:12:53.844Z" agent="5.0 (Windows NT 10.0; Win64; x64) AppleWebKit/537.36 (KHTML, like Gecko) Chrome/105.0.0.0 Safari/537.36" etag="E9yW4zOOigOdRk9C4K1c" version="20.3.2" type="github">
  <diagram id="C5RBs43oDa-KdzZeNtuy" name="Page-1">
    <mxGraphModel dx="1422" dy="754" grid="1" gridSize="10" guides="1" tooltips="1" connect="1" arrows="1" fold="1" page="1" pageScale="1" pageWidth="827" pageHeight="1169" math="0" shadow="0">
      <root>
        <mxCell id="WIyWlLk6GJQsqaUBKTNV-0" />
        <mxCell id="WIyWlLk6GJQsqaUBKTNV-1" parent="WIyWlLk6GJQsqaUBKTNV-0" />
        <mxCell id="WIyWlLk6GJQsqaUBKTNV-3" value="C=A*B" style="rounded=1;whiteSpace=wrap;html=1;fontSize=12;glass=0;strokeWidth=1;shadow=0;" parent="WIyWlLk6GJQsqaUBKTNV-1" vertex="1">
          <mxGeometry x="160" y="393" width="120" height="40" as="geometry" />
        </mxCell>
        <mxCell id="Cnl-JkXNAMOq4Oll2_jL-5" value="" style="edgeStyle=orthogonalEdgeStyle;rounded=0;orthogonalLoop=1;jettySize=auto;html=1;" edge="1" parent="WIyWlLk6GJQsqaUBKTNV-1" source="Cnl-JkXNAMOq4Oll2_jL-0" target="Cnl-JkXNAMOq4Oll2_jL-2">
          <mxGeometry relative="1" as="geometry">
            <Array as="points">
              <mxPoint x="220" y="270" />
              <mxPoint x="220" y="270" />
            </Array>
          </mxGeometry>
        </mxCell>
        <mxCell id="Cnl-JkXNAMOq4Oll2_jL-0" value="Enter A" style="shape=parallelogram;perimeter=parallelogramPerimeter;whiteSpace=wrap;html=1;fixedSize=1;" vertex="1" parent="WIyWlLk6GJQsqaUBKTNV-1">
          <mxGeometry x="160" y="170" width="120" height="60" as="geometry" />
        </mxCell>
        <mxCell id="Cnl-JkXNAMOq4Oll2_jL-2" value="Enter B&lt;br&gt;" style="shape=parallelogram;perimeter=parallelogramPerimeter;whiteSpace=wrap;html=1;fixedSize=1;" vertex="1" parent="WIyWlLk6GJQsqaUBKTNV-1">
          <mxGeometry x="158" y="280" width="120" height="60" as="geometry" />
        </mxCell>
        <mxCell id="Cnl-JkXNAMOq4Oll2_jL-3" value="Start" style="ellipse;whiteSpace=wrap;html=1;" vertex="1" parent="WIyWlLk6GJQsqaUBKTNV-1">
          <mxGeometry x="160" y="40" width="120" height="80" as="geometry" />
        </mxCell>
        <mxCell id="Cnl-JkXNAMOq4Oll2_jL-7" value="" style="edgeStyle=orthogonalEdgeStyle;rounded=0;orthogonalLoop=1;jettySize=auto;html=1;" edge="1" parent="WIyWlLk6GJQsqaUBKTNV-1">
          <mxGeometry relative="1" as="geometry">
            <mxPoint x="222" y="341" as="sourcePoint" />
            <mxPoint x="222" y="391" as="targetPoint" />
            <Array as="points">
              <mxPoint x="222" y="381" />
              <mxPoint x="222" y="381" />
            </Array>
          </mxGeometry>
        </mxCell>
        <mxCell id="Cnl-JkXNAMOq4Oll2_jL-8" value="" style="edgeStyle=orthogonalEdgeStyle;rounded=0;orthogonalLoop=1;jettySize=auto;html=1;" edge="1" parent="WIyWlLk6GJQsqaUBKTNV-1">
          <mxGeometry relative="1" as="geometry">
            <mxPoint x="221" y="122" as="sourcePoint" />
            <mxPoint x="221" y="172" as="targetPoint" />
            <Array as="points">
              <mxPoint x="221" y="162" />
              <mxPoint x="221" y="162" />
            </Array>
          </mxGeometry>
        </mxCell>
        <mxCell id="Cnl-JkXNAMOq4Oll2_jL-9" value="" style="edgeStyle=orthogonalEdgeStyle;rounded=0;orthogonalLoop=1;jettySize=auto;html=1;" edge="1" parent="WIyWlLk6GJQsqaUBKTNV-1">
          <mxGeometry relative="1" as="geometry">
            <mxPoint x="222" y="433" as="sourcePoint" />
            <mxPoint x="222" y="483" as="targetPoint" />
            <Array as="points">
              <mxPoint x="222" y="473" />
              <mxPoint x="222" y="473" />
            </Array>
          </mxGeometry>
        </mxCell>
        <mxCell id="Cnl-JkXNAMOq4Oll2_jL-10" value="Print C" style="shape=document;whiteSpace=wrap;html=1;boundedLbl=1;" vertex="1" parent="WIyWlLk6GJQsqaUBKTNV-1">
          <mxGeometry x="160" y="483" width="120" height="80" as="geometry" />
        </mxCell>
        <mxCell id="Cnl-JkXNAMOq4Oll2_jL-11" value="End" style="ellipse;whiteSpace=wrap;html=1;" vertex="1" parent="WIyWlLk6GJQsqaUBKTNV-1">
          <mxGeometry x="160" y="600" width="120" height="80" as="geometry" />
        </mxCell>
        <mxCell id="Cnl-JkXNAMOq4Oll2_jL-12" value="" style="edgeStyle=orthogonalEdgeStyle;rounded=0;orthogonalLoop=1;jettySize=auto;html=1;" edge="1" parent="WIyWlLk6GJQsqaUBKTNV-1">
          <mxGeometry relative="1" as="geometry">
            <mxPoint x="222" y="551" as="sourcePoint" />
            <mxPoint x="222" y="601" as="targetPoint" />
            <Array as="points">
              <mxPoint x="222" y="591" />
              <mxPoint x="222" y="591" />
            </Array>
          </mxGeometry>
        </mxCell>
      </root>
    </mxGraphModel>
  </diagram>
</mxfile>
